<?xml version="1.0" encoding="utf-8"?>
<!-- Generator: Adobe Illustrator 17.1.0, SVG Export Plug-In . SVG Version: 6.00 Build 0)  -->
<!DOCTYPE svg PUBLIC "-//W3C//DTD SVG 1.1//EN" "http://www.w3.org/Graphics/SVG/1.1/DTD/svg11.dtd">
<svg version="1.1" id="Layer_2" xmlns="http://www.w3.org/2000/svg" xmlns:xlink="http://www.w3.org/1999/xlink" x="0px" y="0px"
	 viewBox="0 0 100 100" enable-background="new 0 0 100 100" xml:space="preserve">
<g>
	<g>
		<path fill="#A61748" d="M78.8,36c-0.6,0-1.1-0.4-1.2-0.9c-0.2-0.7,0.2-1.4,0.9-1.5l7.2-1.9c0.7-0.2,1.4,0.2,1.5,0.9
			c0.2,0.7-0.2,1.4-0.9,1.5L79.2,36C79.1,36,78.9,36,78.8,36z"/>
	</g>
	<g>
		<path fill="#A61748" d="M21.2,36c-0.1,0-0.2,0-0.3,0l-7.2-1.9c-0.7-0.2-1.1-0.9-0.9-1.5c0.2-0.7,0.9-1.1,1.5-0.9l7.2,1.9
			c0.7,0.2,1.1,0.9,0.9,1.5C22.2,35.7,21.7,36,21.2,36z"/>
	</g>
	<g>
		<path fill="#A61748" d="M28.8,22.5c-0.3,0-0.6-0.1-0.9-0.4L22.7,17c-0.5-0.5-0.5-1.3,0-1.8s1.3-0.5,1.8,0l5.2,5.2
			c0.5,0.5,0.5,1.3,0,1.8C29.4,22.4,29.1,22.5,28.8,22.5z"/>
	</g>
	<g>
		<path fill="#A61748" d="M42.2,14.7c-0.6,0-1.1-0.4-1.2-0.9l-1.9-7C39,6.1,39.4,5.4,40,5.3c0.7-0.2,1.4,0.2,1.5,0.9l1.9,7
			c0.2,0.7-0.2,1.4-0.9,1.5C42.4,14.7,42.3,14.7,42.2,14.7z"/>
	</g>
	<g>
		<path fill="#A61748" d="M57.8,14.7c-0.1,0-0.2,0-0.3,0c-0.7-0.2-1.1-0.9-0.9-1.5l1.9-7c0.2-0.7,0.9-1.1,1.5-0.9
			c0.7,0.2,1.1,0.9,0.9,1.5l-1.9,7C58.8,14.3,58.3,14.7,57.8,14.7z"/>
	</g>
	<g>
		<path fill="#A61748" d="M71.2,22.5c-0.3,0-0.6-0.1-0.9-0.4c-0.5-0.5-0.5-1.3,0-1.8l5.2-5.2c0.5-0.5,1.3-0.5,1.8,0
			c0.5,0.5,0.5,1.3,0,1.8l-5.2,5.2C71.8,22.4,71.5,22.5,71.2,22.5z"/>
	</g>
</g>
<g>
	<path fill="#A61748" d="M60.5,81.2c-0.2-1-1.1-1.8-2.2-1.8H41.6c-1.2,0-2.2,1-2.2,2.2c0,1.2,1,2.2,2.2,2.2h5.1l-5.9,2.4
		c-1,0.4-1.6,1.4-1.4,2.5c0.2,1,1.1,1.8,2.2,1.8h16.8c1.2,0,2.2-1,2.2-2.2c0-1.2-1-2.2-2.2-2.2h-5.1l5.9-2.4
		C60.2,83.3,60.7,82.2,60.5,81.2z M44.1,92c0,1.6,1.3,3,3,3h5.8c1.6,0,3-1.3,3-3v-0.1L44.1,92L44.1,92z M67.9,24.3
		c-4.9-4.9-11.4-7.4-17.9-7.4c-6.5,0-12.9,2.5-17.9,7.4c-9.9,9.9-9.9,25.9,0,35.7c4.1,4.1,6.5,9.3,7.2,14.7c0.1,1,1.3,3.1,3.2,3.1
		c0.8,0,14.1,0,14.8,0c2,0,3.1-2.1,3.2-3.1c0.7-5.4,3.1-10.6,7.2-14.7C77.7,50.2,77.7,34.2,67.9,24.3z M65.1,57.3
		c-4.6,4.6-7.4,10.3-8.3,16.7H43.2c-0.9-6.4-3.7-12.2-8.3-16.7c-4-4-6.3-9.4-6.3-15.1c0-5.7,2.2-11.1,6.3-15.1c4-4,9.4-6.3,15.1-6.3
		c5.7,0,11.1,2.2,15.1,6.3c4,4,6.3,9.4,6.3,15.1S69.1,53.2,65.1,57.3z"/>
</g>
</svg>
