<?xml version="1.0" encoding="utf-8"?>
<!-- Generator: Adobe Illustrator 17.1.0, SVG Export Plug-In . SVG Version: 6.00 Build 0)  -->
<!DOCTYPE svg PUBLIC "-//W3C//DTD SVG 1.1//EN" "http://www.w3.org/Graphics/SVG/1.1/DTD/svg11.dtd">
<svg version="1.1" id="Ebene_1" xmlns="http://www.w3.org/2000/svg" xmlns:xlink="http://www.w3.org/1999/xlink" x="0px" y="0px"
	 viewBox="0 0 100 100" enable-background="new 0 0 100 100" xml:space="preserve">
<g id="Your_Icon">
	<g>
		<path fill="#A61748" d="M47.8,36.5"/>
	</g>
	<g>
		<path fill="#A61748" d="M39.3,45"/>
	</g>
	<path fill="#A61748" d="M94,19.1L81.1,6.3c-1.2-1.2-3.4-1.2-4.7,0l-30.2,30L28.5,18.7c0,0-0.1,0-0.1-0.1c0,0,0,0,0,0
		c-0.1-0.1-0.2-0.2-0.3-0.2c0,0,0,0,0,0l-15.4-8.1c-0.8-0.4-1.7-0.3-2.3,0.3c-0.6,0.6-0.8,1.5-0.3,2.3l8.2,15.3
		c0.1,0.2,0.2,0.3,0.3,0.4c0,0,0,0,0,0.1l17.7,17.5L6,76.2c-0.6,0.6-1,1.4-1,2.3s0.3,1.7,1,2.3l12.9,12.8c0.6,0.6,1.5,1,2.3,1
		c0.9,0,1.7-0.3,2.3-1l30.2-30l22.6,22.5c0,0,0,0,0,0l1.7,1.7c1.3,1.3,3.1,2.1,5,2.1c1.9,0,3.7-0.7,5-2.1c1.3-1.3,2.1-3.1,2.1-5
		s-0.7-3.6-2.1-5l-1.7-1.7L63.8,53.7l30.2-30C95.3,22.5,95.3,20.4,94,19.1z M16.4,16.7l7.4,3.9L20.4,24L16.4,16.7z M21.3,90.5
		l-12-12l2.8-2.8l5.5,5.5c0.2,0.2,0.4,0.3,0.7,0.3s0.5-0.1,0.7-0.3c0.4-0.4,0.4-1,0-1.4l-5.5-5.5l2.1-2l5.5,5.5
		c0.2,0.2,0.4,0.3,0.7,0.3s0.5-0.1,0.7-0.3c0.4-0.4,0.4-1,0-1.4l-5.5-5.5l2.1-2l5.5,5.5c0.2,0.2,0.4,0.3,0.7,0.3s0.5-0.1,0.7-0.3
		c0.4-0.4,0.4-1,0-1.4l-5.5-5.5l2.1-2l5.5,5.5c0.2,0.2,0.4,0.3,0.7,0.3s0.5-0.1,0.7-0.3c0.4-0.4,0.4-1,0-1.4l-5.5-5.5l2.1-2l5.5,5.5
		c0.2,0.2,0.4,0.3,0.7,0.3s0.5-0.1,0.7-0.3c0.4-0.4,0.4-1,0-1.4l-5.5-5.5l2.1-2l5.5,5.5c0.2,0.2,0.4,0.3,0.7,0.3s0.5-0.1,0.7-0.3
		c0.4-0.4,0.4-1,0-1.4l-5.5-5.5l2.1-2l5.5,5.5c0.2,0.2,0.4,0.3,0.7,0.3s0.5-0.1,0.7-0.3c0.4-0.4,0.4-1,0-1.4l-5.5-5.5l2.1-2l5.5,5.5
		c0.2,0.2,0.4,0.3,0.7,0.3s0.5-0.1,0.7-0.3c0.4-0.4,0.4-1,0-1.4l-5.5-5.5L39,49l12,12L21.3,90.5z M85.1,80.3l0.3,0.3
		c0.6,0.6,0.9,1.4,0.9,2.2c0,0.8-0.3,1.6-0.9,2.2c-1.2,1.2-3.3,1.2-4.5,0l-0.3-0.3L85.1,80.3z M77.8,82L22.7,27.3l4.5-4.4l55.1,54.7
		L77.8,82z M61,51L49,39l1-1l5.5,5.5c0.2,0.2,0.4,0.3,0.7,0.3s0.5-0.1,0.7-0.3c0.4-0.4,0.4-1,0-1.4l-5.5-5.5l2.1-2l5.5,5.5
		c0.2,0.2,0.4,0.3,0.7,0.3s0.5-0.1,0.7-0.3c0.4-0.4,0.4-1,0-1.4l-5.5-5.5l2.1-2l5.5,5.5c0.2,0.2,0.4,0.3,0.7,0.3s0.5-0.1,0.7-0.3
		c0.4-0.4,0.4-1,0-1.4l-5.5-5.5l2.1-2l5.5,5.5c0.2,0.2,0.4,0.3,0.7,0.3s0.5-0.1,0.7-0.3c0.4-0.4,0.4-1,0-1.4l-5.5-5.5l2.1-2l5.5,5.5
		c0.2,0.2,0.4,0.3,0.7,0.3s0.5-0.1,0.7-0.3c0.4-0.4,0.4-1,0-1.4L65.2,23l2.1-2l5.5,5.5c0.2,0.2,0.4,0.3,0.7,0.3s0.5-0.1,0.7-0.3
		c0.4-0.4,0.4-1,0-1.4l-5.5-5.5l2.1-2l5.5,5.5c0.2,0.2,0.4,0.3,0.7,0.3s0.5-0.1,0.7-0.3c0.4-0.4,0.4-1,0-1.4l-5.5-5.5l2.1-2l5.5,5.5
		c0.2,0.2,0.4,0.3,0.7,0.3s0.5-0.1,0.7-0.3c0.4-0.4,0.4-1,0-1.4l-5.5-5.5l3.2-3.2l12,12L61,51z"/>
</g>
<g id="Layer_2">
</g>
</svg>
