<?xml version="1.0" encoding="utf-8"?>
<!-- Generator: Adobe Illustrator 17.1.0, SVG Export Plug-In . SVG Version: 6.00 Build 0)  -->
<!DOCTYPE svg PUBLIC "-//W3C//DTD SVG 1.1//EN" "http://www.w3.org/Graphics/SVG/1.1/DTD/svg11.dtd">
<svg version="1.1" id="Layer_1" xmlns="http://www.w3.org/2000/svg" xmlns:xlink="http://www.w3.org/1999/xlink" x="0px" y="0px"
	 viewBox="0 0 100 100" enable-background="new 0 0 100 100" xml:space="preserve">
<g>
	<path fill="#A61748" d="M88.5,50c0-1.5-0.1-3.1-0.3-4.5L100,34.8c-1-3.3-2.3-6.5-3.9-9.5l-15.8,0.8c-1.9-2.4-4-4.5-6.4-6.4
		l0.8-15.8c-3-1.6-6.2-2.9-9.5-3.9L54.5,11.8c-1.5-0.2-3-0.3-4.5-0.3c-1.5,0-3.1,0.1-4.5,0.3L34.8,0c-3.3,1-6.5,2.3-9.5,3.9
		l0.8,15.8c-2.4,1.9-4.5,4-6.4,6.4L3.9,25.4c-1.6,3-2.9,6.2-3.9,9.5l11.8,10.6c-0.2,1.5-0.3,3-0.3,4.5c0,1.5,0.1,3.1,0.3,4.5L0,65.2
		c1,3.3,2.3,6.5,3.9,9.5l15.8-0.8c1.9,2.4,4,4.5,6.4,6.4l-0.8,15.8c3,1.6,6.2,2.9,9.5,3.9l10.6-11.8c1.5,0.2,3,0.3,4.5,0.3
		c1.5,0,3.1-0.1,4.5-0.3L65.2,100c3.3-1,6.5-2.3,9.5-3.9l-0.8-15.8c2.4-1.9,4.5-4,6.4-6.4l15.8,0.8c1.6-3,2.9-6.2,3.9-9.5L88.2,54.6
		C88.4,53.1,88.5,51.5,88.5,50z M50,77c-14.9,0-27-12.1-27-27c0-14.9,12.1-27,27-27c14.9,0,27,12.1,27,27C77,64.9,64.9,77,50,77z"/>
	<path fill="#A61748" d="M64.2,50c0,7.9-6.4,14.2-14.2,14.2c-7.8,0-14.2-6.4-14.2-14.2c0-7.8,6.4-14.2,14.2-14.2
		C57.8,35.8,64.2,42.1,64.2,50z"/>
</g>
</svg>
